<svg xmlns="http://www.w3.org/2000/svg" viewBox="0 0 339.72 419.21"><defs><style>.cls-1{fill:#e5e3dc;}.cls-2{fill:#ad4040;}.cls-3,.cls-4{fill:#064c1a;}.cls-4{font-size:27.89px;font-family:SourceSansPro-Regular, Source Sans Pro;}</style></defs><g id="Capa_2" data-name="Capa 2"><g id="TEXTS"><path class="cls-1" d="M282.08,185.55c-1.59-.54-3.38.83-5.07.59a4.92,4.92,0,0,1-3.28-2.4c-1.3-1.86-2.29-3.61-4.78-3.8-2-.15-4.1.22-6.11.21-2.18,0-4.36-.09-6.53-.22-4.36-.27-8.71-.77-13-1.42-24.69-3.72-48.63-11.33-73-16.64-22.47-4.9-45.77-8.15-68.79-5.92-19.33,1.88-38.16,7.73-54.45,18.3a36.7,36.7,0,0,1-3.42,2.44,15.21,15.21,0,0,1-3.27,1.95,5.78,5.78,0,0,1-4.58.35,5.62,5.62,0,0,1-2.69-2.93,4.52,4.52,0,0,1-.18-.47,29.21,29.21,0,0,0-.21,3.38,23,23,0,0,0,6.89,16.81c4.07,3.93,9.4,6.32,14.84,7.69,10,2.53,20.34,1,30.18-1.94,9.29-2.74,17.29-7.71,25.86-12.15,9.16-4.74,17.43-9.85,27-13.87a106.57,106.57,0,0,1,11.24-4.22,1.08,1.08,0,0,0-.09-2.1c-6.41-1.31-12.88-2.38-19.42-3.12-14.23-1.6-28.7-1.75-42.83.85-13.89,2.55-28.28,7.44-39.34,16.49-.3.24-.73-.17-.43-.43A65,65,0,0,1,63,172.58c25.16-11.55,54.4-11.12,81.14-6.44,29.22,5.1,57.12,15.58,85.86,22.65,16.08,4,36.88,8.57,53.87,3.89l.09-1.94C284.09,189,284.11,186.26,282.08,185.55Z"/><path class="cls-1" d="M274.56,126.49a237.62,237.62,0,0,0-77-19.5,242.05,242.05,0,0,0-79,6.47,223.37,223.37,0,0,0-37.53,13c-11.5,5.2-22.68,11.63-31.82,20.45A67,67,0,0,0,39.84,158c-2.42,3.65-5.25,8.16-6,12.56-.43,2.73-.48,6.22,2.89,6.85,3.81.72,6.84-2.08,9.83-4l9.65-6.18a55.16,55.16,0,0,1,6.9-3.39q3.82-1.73,7.77-3.15a134.3,134.3,0,0,1,34.79-7.18c22.79-1.84,45.35,1.5,67.63,6.11,11.94,2.47,23.81,5.31,35.71,8s24.08,5.55,36.32,7.16c4.57.6,9.15,1,13.75,1.22q3.47.14,6.93,0c2.92-.08,5.22,1.75,7.1,3.86,1.12,1.26,2,3.52,3.66,4.12,1,.37,2.09-.25,3.05-.52a5.41,5.41,0,0,1,2.62-.18,4.68,4.68,0,0,1,2.82,2c1.48,2.2,1.42,5.13,1.31,7.67-.05,1.25-.15,2.5-.23,3.75-.12,2.21-.24,4.42-.24,6.63,0,1.76.17,3.76,1.51,5.06,1.17,1.13,2.88,1.39,3.95,0,1.64-2.1,1.5-5.1,1.21-7.6-.24-2.14-.7-4.26-1.07-6.38s-.76-4.34-1.08-6.52c-.51-3.42-1.43-8,2-10.29a4.59,4.59,0,0,1,2.27-.76,8.77,8.77,0,0,0,2.71-.17c1.81-.69,1.84-2.41,1.73-4-.2-2.86,1.44-5.1,2.19-7.76,1.8-6.43,1.41-13.89-2.2-19.6a33.39,33.39,0,0,0-11.74-10.62A125.38,125.38,0,0,0,273.09,128c-4.92-2-3.71-3.14,1.52-1,6.77,2.72,13.65,5.5,19.35,10,.66.53,1.31,1.1,1.93,1.69a27.33,27.33,0,0,1,7.85,12.8,30.41,30.41,0,0,1-.61,15.61c-.65,2.16-1.35,3.71-1.22,6a5.32,5.32,0,0,1-1.93,4.69,5.06,5.06,0,0,1-2.12,1c-1.07.21-2.14-.13-3.2,0-4.26.67-2.85,7.31-2.15,10.46a35.92,35.92,0,0,0,12.69-11.42,28.59,28.59,0,0,0,5.38-15.57,25.3,25.3,0,0,0-5.74-16C297.31,136.74,285.39,131.31,274.56,126.49Z"/><path class="cls-2" d="M282.76,173.78c-5.92.81-11.18-2.13-17.62-2.59-24.1-1.69-46-7.46-68.37-12.16-22.7-4.75-45.53-9.53-68.71-10.43s-46.93,2.25-67.67,12.64c-2.91,1.46-5.87,3.08-9.11,3.24s-7.75-1.81-6.54-5.67c1-3.3,5.56-5.88,8.15-7.89a174.39,174.39,0,0,1,19.8-13.27,192.57,192.57,0,0,1,44-18.41A207.46,207.46,0,0,1,151,112.68c39.11-4.12,78.94,2.46,115.85,16,6.83,2.51,13.68,5.32,19.41,9.81s10.3,10.9,11.09,18.14c.75,6.76-4.1,12.8-9.91,15.66A15.2,15.2,0,0,1,282.76,173.78Z"/><path class="cls-3" d="M312.9,158.42c-1.66-12.09-11.58-20.5-21.55-26.27-11.41-6.61-23.91-11.68-36.39-15.86a239.76,239.76,0,0,0-39.61-9.61,246.69,246.69,0,0,0-81,.9A235.59,235.59,0,0,0,95,118.18c-12.26,4.49-24.4,9.85-35.25,17.18-10.46,7-20.29,16.32-25.65,27.94-2.63,5.72-4.28,12.11-3.7,18.44a24.88,24.88,0,0,0,7.35,15.63c8,7.81,20.14,10.31,31,10,9.91-.3,19.39-3.12,28.39-7.15,9.26-4.16,17.89-9.65,26.8-14.48a155.45,155.45,0,0,1,31.9-13.15c4.07-1.11,2.77-.95,3.63-.93,19.22,4.67,38.07,11,57.13,16.28,14.28,4,28.92,7.75,43.73,9a70.67,70.67,0,0,0,23.45-1.6l-.09,2c-.16,3.67-1,8.27,1,11.6,1.6,2.67,5.18,4.17,7.84,2.06s2.57-5.8,2.38-8.72a65.31,65.31,0,0,0-1.84-10.42,38.4,38.4,0,0,0,5.74-3.62C307.84,181.27,314.5,170.07,312.9,158.42ZM284,190.74l-.09,1.94c-17,4.68-37.79.06-53.87-3.89-28.74-7.07-56.64-17.55-85.86-22.65-26.74-4.68-56-5.11-81.14,6.44A65,65,0,0,0,46.58,183c-.3.26.13.67.43.43,11.06-9,25.45-13.94,39.34-16.49,14.13-2.6,28.6-2.45,42.83-.85,6.54.74,13,1.81,19.42,3.12a1.08,1.08,0,0,1,.09,2.1,106.57,106.57,0,0,0-11.24,4.22c-9.53,4-17.8,9.13-27,13.87-8.57,4.44-16.57,9.41-25.86,12.15-9.84,2.9-20.16,4.47-30.18,1.94-5.44-1.37-10.77-3.76-14.84-7.69A23,23,0,0,1,32.72,179a29.21,29.21,0,0,1,.21-3.38,4.52,4.52,0,0,0,.18.47A5.62,5.62,0,0,0,35.8,179a5.78,5.78,0,0,0,4.58-.35,15.21,15.21,0,0,0,3.27-1.95,36.7,36.7,0,0,0,3.42-2.44c16.29-10.57,35.12-16.42,54.45-18.3,23-2.23,46.32,1,68.79,5.92,24.35,5.31,48.29,12.92,73,16.64,4.31.65,8.66,1.15,13,1.42,2.17.13,4.35.21,6.53.22,2,0,4.13-.36,6.11-.21,2.49.19,3.48,1.94,4.78,3.8a4.92,4.92,0,0,0,3.28,2.4c1.69.24,3.48-1.13,5.07-.59C284.11,186.26,284.09,189,284,190.74Zm21.2-12.89a35.92,35.92,0,0,1-12.69,11.42c-.7-3.15-2.11-9.79,2.15-10.46,1.06-.16,2.13.18,3.2,0a5.06,5.06,0,0,0,2.12-1,5.32,5.32,0,0,0,1.93-4.69c-.13-2.31.57-3.86,1.22-6a30.41,30.41,0,0,0,.61-15.61,27.33,27.33,0,0,0-7.85-12.8c-.62-.59-1.27-1.16-1.93-1.69-5.7-4.55-12.58-7.33-19.35-10-5.23-2.1-6.44-1-1.52,1a125.38,125.38,0,0,1,14.53,6.65,33.39,33.39,0,0,1,11.74,10.62c3.61,5.71,4,13.17,2.2,19.6-.75,2.66-2.39,4.9-2.19,7.76.11,1.63.08,3.35-1.73,4a8.77,8.77,0,0,1-2.71.17,4.59,4.59,0,0,0-2.27.76c-3.42,2.28-2.5,6.87-2,10.29.32,2.18.69,4.35,1.08,6.52s.83,4.24,1.07,6.38c.29,2.5.43,5.5-1.21,7.6-1.07,1.38-2.78,1.12-3.95,0-1.34-1.3-1.51-3.3-1.51-5.06,0-2.21.12-4.42.24-6.63.08-1.25.18-2.5.23-3.75.11-2.54.17-5.47-1.31-7.67a4.68,4.68,0,0,0-2.82-2,5.41,5.41,0,0,0-2.62.18c-1,.27-2.05.89-3.05.52-1.67-.6-2.54-2.86-3.66-4.12-1.88-2.11-4.18-3.94-7.1-3.86q-3.46.1-6.93,0c-4.6-.17-9.18-.62-13.75-1.22-12.24-1.61-24.29-4.46-36.32-7.16s-23.77-5.51-35.71-8c-22.28-4.61-44.84-7.95-67.63-6.11a134.3,134.3,0,0,0-34.79,7.18q-3.95,1.43-7.77,3.15a55.16,55.16,0,0,0-6.9,3.39l-9.65,6.18c-3,1.91-6,4.71-9.83,4-3.37-.63-3.32-4.12-2.89-6.85.7-4.4,3.53-8.91,6-12.56a67,67,0,0,1,9.33-11.05c9.14-8.82,20.32-15.25,31.82-20.45a223.37,223.37,0,0,1,37.53-13,242.05,242.05,0,0,1,79-6.47,237.62,237.62,0,0,1,77,19.5c10.83,4.82,22.75,10.25,30.28,19.79a25.3,25.3,0,0,1,5.74,16A28.59,28.59,0,0,1,305.2,177.85Z"/><path class="cls-1" d="M134.86,139.33a44,44,0,0,1-3.21-3.34c-2.53-2.92-8.15-10.43-1.86-12.71a5.76,5.76,0,0,1,4.48.22c1,.49,2.82,2.06,2,3.35-.5.82-1.75.63-2.49,1.11a3.41,3.41,0,0,0-1.52,2.28,3.84,3.84,0,0,0,2.19,3.82c3.24,1.59,6.55-1.39,7-4.52a8.75,8.75,0,0,0-3.64-8.13,13.38,13.38,0,0,0-9-2.46,24.83,24.83,0,0,0-16.35,8c-3.73,4.27-5.21,11.46-.44,15.59,2.14,1.84,5.4,2.66,7.94,1.1a3.81,3.81,0,0,0,1.92-4,2.46,2.46,0,0,0-3.37-1.74c-.94.39-1.76.75-2.59-.12a2.76,2.76,0,0,1-.47-2.81,4,4,0,0,1,5.16-2.2c2.59.88,3.92,3.48,4.93,5.84a33.57,33.57,0,0,1,1.56,4.49,9.28,9.28,0,0,0,1.15,3.25c1.27,1.71,3.18.38,4.55-.48a24.72,24.72,0,0,0,4.11-2.66C138.42,141.79,135.82,140.24,134.86,139.33Z"/><path class="cls-2" d="M134.59,125.15h0c-1.59-1-4.14-1.19-5.42.43s.07,3.79,1.16,5.27c0-.16,0-.33,0-.49a5.22,5.22,0,0,1,4.15-4.65A.3.3,0,0,0,134.59,125.15Z"/><path class="cls-3" d="M208.27,121.24a10.35,10.35,0,0,0,8.55-.46,15,15,0,0,0,6-5.85c1.48-2.47,3.27-6.11,2.52-9.05a6,6,0,0,0-1.42-2.52c-2.73,1.65-8.35,0-7.86-3.83a3.13,3.13,0,0,1,.29-1,12.15,12.15,0,0,0-7.54,1.26A12.61,12.61,0,0,0,203,114.88,10.54,10.54,0,0,0,208.27,121.24Zm10.91-5.43a.66.66,0,0,1,0,1.32A.66.66,0,0,1,219.18,115.81Zm-12.7,1.78a8.77,8.77,0,0,0,5.18,1.83,8.53,8.53,0,0,0,2.75-.41,6.61,6.61,0,0,1,2-.67.38.38,0,0,1,.32.56c-.79,1.67-3.93,2-5.54,1.79a7.55,7.55,0,0,1-5-2.82C206,117.68,206.28,117.42,206.48,117.59Z"/><path class="cls-1" d="M118.41,83.08a13.63,13.63,0,0,0,2.48,3.18l.22.19A13.47,13.47,0,0,1,119,80.57a12.22,12.22,0,0,1,.41-5.07,61.47,61.47,0,0,1,2-5.92c0-.07.14,0,.12,0a31.6,31.6,0,0,0-1,5.79,29.66,29.66,0,0,0,.26,4.8,19.67,19.67,0,0,0,1.79,5.63,9,9,0,0,1,0-2.13c.35-2.49,1.39-4.77,2.09-7.16A14.62,14.62,0,0,0,124.4,68c-.63-2.08-1.54-4.15-2.13-6.26a18.27,18.27,0,0,1-3.14,5.15c-1.85,2.38-3.14,4.68-3,7.79A18.39,18.39,0,0,0,118.41,83.08Z"/><path class="cls-1" d="M216.68,149.73a2.41,2.41,0,0,0-.6-.59,6.74,6.74,0,0,0-3.2-.69c-1-.1-2.08-.18-3.13-.21a20.42,20.42,0,0,0-10.43,2A56.84,56.84,0,0,0,216.68,149.73Z"/><path class="cls-1" d="M162.65,98.39a39.88,39.88,0,0,1,9,4.65c.58.37,1.16.75,1.73,1.15.05-1.19.34-2.41.47-3.56.16-1.46.27-2.92.32-4.38s0-3.09,0-4.64.11-2.93,0-4.37c0-.1.16-.12.17,0a45.27,45.27,0,0,1,.77,4.66c.1,1.54.09,3.1,0,4.64s-.16,3.27-.35,4.89a15.94,15.94,0,0,1-.6,3.41l.39.29c4.48,0,10-1.38,12.38-5.35,1.39-2.31.48-5.51-2.54-5.51-2.49,0-4.33,2.09-5.88,3.77a.76.76,0,0,1-1.2-.92c1.93-3.09,4.1-6.52,4.1-10.3,0-2.81-1.48-6.24-4.4-7.09-3.36-1-6.3,1.94-7.28,4.91-1.3,4,.35,8.2,2,11.77a.75.75,0,0,1-1.29.75c-1.62-2.34-3.95-5.63-7.25-4.82a2.76,2.76,0,0,0-2.3,3.07A5.67,5.67,0,0,0,162.65,98.39Z"/><path class="cls-3" d="M205.36,158a10.45,10.45,0,0,0,9.84-3.25c.9-1,2.05-2.76,1.8-4.21a45.09,45.09,0,0,1-18.67,1.35A10.26,10.26,0,0,0,205.36,158Zm6.35-2.78a.51.51,0,0,1,0,1A.51.51,0,0,1,211.71,155.2Zm-9.71-.36a10.58,10.58,0,0,0,4,1.08c1,.06,2.12-.38,3.09-.07a.3.3,0,0,1,.13.51c-.87.82-2.55.59-3.65.43a8.81,8.81,0,0,1-3.76-1.57A.22.22,0,0,1,202,154.84Z"/><path class="cls-1" d="M117.29,102.47c1,.23,1.75-.72,2-1.63.47-1-1.91-1.65-2.39-.53a.14.14,0,0,1,0,.06C116.51,101.13,116.07,102.21,117.29,102.47Z"/><path class="cls-1" d="M74,122.82a51.06,51.06,0,0,0,23.23,8.33c3.2.32,9.46.22,7.57-4.84a6.86,6.86,0,0,0-.61-1.21c-.37-.51-.77-1-1.17-1.46-.25-.29-.51-.58-.78-.86-.45-.44-.91-.85-1.35-1.26a42.11,42.11,0,0,0-3.53-2.87,36.85,36.85,0,0,0-12.2-5.11c-3.85-.89-9.28-2.27-12.86.08a6.6,6.6,0,0,0-.89.71,3.41,3.41,0,0,0,.73,2.74,12.22,12.22,0,0,0,3.45,2.36,76.61,76.61,0,0,0,8.13,3.88c5.56,2.2,11.43,3.19,17.29,4.2.45.08.27.67-.1.72-7.54,1-15.3-1.81-22-5.14a48.16,48.16,0,0,1-5.09-3,8.57,8.57,0,0,1-3.07-2.94,3.73,3.73,0,0,1-.38-1.48,3.8,3.8,0,0,0-.3,3C70.75,120.52,72.5,121.79,74,122.82Zm28.55,3.63a.35.35,0,0,1,.06-.17l.07-.09.1-.08.11,0h.25l.11,0,.1.08,0,0a.37.37,0,0,1,.11.19.32.32,0,0,1,0,.17.27.27,0,0,1,0,.15.46.46,0,0,1-.15.16l0,0a.27.27,0,0,1-.17.06H103a.27.27,0,0,1-.12,0,.21.21,0,0,1-.1-.06.18.18,0,0,1-.08-.09.21.21,0,0,1-.06-.1.19.19,0,0,1,0-.12A.28.28,0,0,1,102.58,126.45Z"/><path class="cls-1" d="M126.26,112c2.89,1.62,6.48,1.3,9.56.49a.91.91,0,0,1,1.11,1.11,3.21,3.21,0,0,0,2.37,3.69,3.44,3.44,0,0,0,3.67-2.07.94.94,0,0,1,.18-.25c0-.1,0-.19,0-.29a16.09,16.09,0,0,1-.1-2.5,39.16,39.16,0,0,0-6-3.82,26.76,26.76,0,0,0-7.53-2.17c-.28,0-.19-.47.07-.48A21.46,21.46,0,0,1,143.26,110c.11-.55.24-1.1.4-1.64a14.4,14.4,0,0,1,1.62-3.49l.09-.4a5.76,5.76,0,0,0-.89-4.72c-2.33-3-5.91-.42-5.53,2.82a.8.8,0,0,1-1.2.69c-2.48-1.85-5.51-3.25-8.67-3a7.21,7.21,0,0,0-6.23,4.77C122,107.87,123.84,110.67,126.26,112Z"/><path class="cls-3" d="M117.62,116.09a7.67,7.67,0,0,0,6.19-3.79,7.81,7.81,0,0,1-2.58-7.32,7.15,7.15,0,0,1,1-2.35,8.48,8.48,0,0,0-1-.76c-.26-.17-.54-.32-.81-.47a2.63,2.63,0,0,1-1,1.5,2.79,2.79,0,0,1-2.79.42,2.32,2.32,0,0,1-1.51-2.86,6.55,6.55,0,0,0-2,.86,8.24,8.24,0,0,0-3.88,7A8,8,0,0,0,117.62,116.09Z"/><path class="cls-1" d="M89.56,144.23a6.41,6.41,0,0,0-2.19-7c-2.27-1.79-5.17-2.7-7.92-3.5a45.13,45.13,0,0,0-13.22-2c-5.55.09-18.5,5.83-14.42,13.38,1.52,2.81,4.72,4.07,7.68,4.69a50.88,50.88,0,0,0,10.07,1.08c6.28.07,13-1.4,17.57-6a.59.59,0,0,1,.83.83c-5.9,5.88-14.2,7.28-22.22,6.53-4.52-.42-11.15-1.38-14.33-5,1,2.66,3.46,4.31,6,5.28,6,2.26,13,2.32,19.24,1C82,152.39,88,150,89.56,144.23Zm-1.66-1.14,0-.61a.7.7,0,0,1,.06-.32,1.07,1.07,0,0,1,.18-.19.18.18,0,0,1,.28,0,1,1,0,0,1,.12.23.71.71,0,0,1,0,.32l-.13.6A.27.27,0,0,1,87.9,143.09Z"/><path class="cls-1" d="M184.41,142.27c-1.87-1-4.32-.8-6.33-.37-2.19.47-4.54,1.48-5.33,3.76-.9,2.6,1.3,4.29,3.52,5.08a9.07,9.07,0,0,0,6.81-.23,6.57,6.57,0,0,0,3.52-3.45A4.4,4.4,0,0,0,184.41,142.27Z"/><path class="cls-1" d="M62.57,107.19c1.26-2.54.89-4.62,0-6.86a11.17,11.17,0,0,1-1.06-4.7c-1.35,1.65-3,3.21-4.36,4.82a13.14,13.14,0,0,0-3.48,7c-.23,2.08-.1,4.1-.71,6.2a7.69,7.69,0,0,1-.74,1.76A22.16,22.16,0,0,0,56.06,111a27.52,27.52,0,0,0,2-3.91,23.42,23.42,0,0,0,1.22-4.9c0-.07.13-.07.13,0a43,43,0,0,1-.33,5.17,10,10,0,0,1-1.5,4.22,15.38,15.38,0,0,1-4.24,4.51l.29-.12a18.44,18.44,0,0,0,3.54-2.24A20.11,20.11,0,0,0,62.57,107.19Z"/><path class="cls-2" d="M160.28,109.15c.94-1.14,2.45-.86,3.61-.25,1,.49,1.87,1.23,3,.63a2.62,2.62,0,0,0,1.35-2.54c-.19-2.07-2.21-3.28-4.07-3.67-3.72-.77-8.14.37-9.19,4.45a7.61,7.61,0,0,0-.19,2.73,11.17,11.17,0,0,1,.24,1.26,8,8,0,0,0,.51,1.34,13,13,0,0,0,1.48,2.26,3.66,3.66,0,0,0,.89.43c2.15.68,4.64-1.49,3-3.55C160.12,111.28,159.3,110.34,160.28,109.15Z"/><path class="cls-2" d="M176.86,114.33c-1.26-1.79-3.6-2.47-5-.44-.94,1.33.82,2.19.75,3.63-.2,3.77-4.68,2.28-6.94,2.48-1.47.13-2.15,1.17-1.38,2.51a6.43,6.43,0,0,0,2.56,2.29,7.68,7.68,0,0,0,10.86-4A7.38,7.38,0,0,0,176.86,114.33Z"/><path class="cls-1" d="M159.77,131.94c4.93,2.88,11.55,4,16.72,1,5.57-3.26,6.91-10.59,4.67-16.32a24.24,24.24,0,0,0-5.51-8.33l0,0-.71-.68-.48-.44-.26-.23a29,29,0,0,0-4-2.89,27.82,27.82,0,0,0-11.25-3.92c-2.71-.26-6.6-.3-8.17,2.43-1.91,3.33-.14,7.61,1.17,10.78a31.91,31.91,0,0,0,5.3,8.68,25.77,25.77,0,0,0,17.28,8.63.57.57,0,0,1,0,1.14,17.69,17.69,0,0,1-5.28-.37c-7.3-1.56-13.33-6.73-17-13.14-2.25-4-4.88-10.2-3.43-14.89-3.54,3.86-3.46,10.07-1.59,14.74C149.53,123.82,154.49,128.85,159.77,131.94Zm-.64-14.29a5.66,5.66,0,0,1-3.82-1.34A8.37,8.37,0,0,1,153,113a8.73,8.73,0,0,1,1-8.72c2-2.42,5.44-3.22,8.58-3a11.15,11.15,0,0,1,4.06,1.06,9.12,9.12,0,0,1,.79.47A5.72,5.72,0,0,1,170,107a4,4,0,0,1-2.55,4,4.35,4.35,0,0,1-2.76-.11c-.6-.21-2.69-1.91-3.16-.88a1,1,0,0,0,.14.94,7.69,7.69,0,0,0,.65.76,3.46,3.46,0,0,1,.23,3.87A4.3,4.3,0,0,1,159.13,117.65Zm15.4,9c-3.84,1.77-9.09.68-11.52-2.94-1.25-1.84-.95-4.53,1.45-5.18a7.85,7.85,0,0,1,2.9,0c1,.12,2.49.46,3.28-.39s-.47-2.14-.89-2.94c-.68-1.29.24-2.57,1.32-3.38a5.08,5.08,0,0,1,3.68-.93c2.5.39,4.3,2.93,4.87,5.23A9.24,9.24,0,0,1,174.53,126.65Z"/><path class="cls-1" d="M231.68,88.41a12.37,12.37,0,0,0,6.95,1.14,11.56,11.56,0,0,0,3.39-1l.24-.13a9.41,9.41,0,0,1-5.11-.33,7.67,7.67,0,0,1-3.32-2.28,42.46,42.46,0,0,1-3.16-4c0-.06,0-.14.08-.1a20.47,20.47,0,0,0,3.54,3.06,19,19,0,0,0,3.46,1.59,13.71,13.71,0,0,0,4.77.55,6.08,6.08,0,0,1-1.46-.85c-1.56-1.25-2.65-3-4-4.54a9.21,9.21,0,0,0-6.08-3c-1.74-.23-3.61-.21-5.36-.49a14,14,0,0,1,2.07,4.7C228.49,85.32,229.46,87.33,231.68,88.41Z"/><path class="cls-1" d="M257.6,148.68a1,1,0,0,0-.73,0,2.33,2.33,0,0,1-.57.17h-.05a.95.95,0,0,0,1.45,1.08A.82.82,0,0,0,257.6,148.68Z"/><path class="cls-1" d="M270.1,110.25a.55.55,0,0,1,.78.77,98.1,98.1,0,0,1-29.1,21.23,64.4,64.4,0,0,0,8.23-1.43c7.46-1.84,14.41-5.2,19.79-10.78,4.67-4.85,8.08-11.3,8.49-18.08a44.4,44.4,0,0,0-26.09,9.2,46.46,46.46,0,0,0-15.15,21.18A101.42,101.42,0,0,0,270.1,110.25Z"/><path class="cls-1" d="M267.94,146.66a34.37,34.37,0,0,0-21.73,0,22.44,22.44,0,0,0-9.43,5.79,7.37,7.37,0,0,0-1.38,2.24c.28,2.78,4.09,4.09,6.38,4.81a31.23,31.23,0,0,0,8.79,1.35,42.27,42.27,0,0,0,9.18-1c1.41-.3,2.78-.68,4.17-1.06s2.4-.92,3.7-.53a.29.29,0,0,1,.17.43c-.85,1.35-2.6,1.69-4.06,2.12a44.49,44.49,0,0,1-5.35,1.21,39.36,39.36,0,0,1-10.62.34,27.53,27.53,0,0,1-9.94-2.77,7.13,7.13,0,0,1-2.71-2.45,4.15,4.15,0,0,0,.22.74,7,7,0,0,0,3.61,3.29,28.64,28.64,0,0,0,10.57,2.65c6.32.5,12.6-.21,18.31-3,3.09-1.52,6.67-3.34,6.91-7.2C275,149.58,271.26,147.73,267.94,146.66Zm-23.64,8.47a.61.61,0,0,1,0-1.22A.61.61,0,0,1,244.3,155.13Zm7.23-3.78a.85.85,0,0,1-.12.37,1,1,0,0,1-.36.35l-.23.1a1,1,0,0,1-.53,0l-.08,0a1,1,0,0,1-.43-.26l-.15-.19a.74.74,0,0,1-.12-.37.57.57,0,0,1,0-.26.67.67,0,0,1,.12-.36l.15-.2a.79.79,0,0,1,.31-.2.85.85,0,0,1,.38-.09h.09a1,1,0,0,1,.49.13.7.7,0,0,1,.28.26.72.72,0,0,1,.18.33A.78.78,0,0,1,251.53,151.35Zm1.5,5.27a.8.8,0,0,1,0-1.6A.8.8,0,0,1,253,156.62Zm4.72-1.34a.5.5,0,0,1,0-1A.5.5,0,0,1,257.75,155.28Zm1-4.26a2.28,2.28,0,0,1-3.42-.61,12,12,0,0,1,.28-2.82,1.7,1.7,0,0,1,1-.61,2.36,2.36,0,0,1,2,.34A2.43,2.43,0,0,1,258.73,151Zm13.06,5.59a4.14,4.14,0,0,1-2,1.21c-.4.05-.77-.4-.42-.73.5-.48,1.12-.81,1.61-1.32.24-.26.49-.52.7-.79s.32-.53.68-.59a.43.43,0,0,1,.51.29C273.09,155.32,272.23,156.2,271.79,156.61Zm2.09-5.33a.47.47,0,0,1,0,.94A.47.47,0,0,1,273.88,151.28Z"/><path class="cls-1" d="M219.55,101.84a4.44,4.44,0,0,0,3,.21c-.83-.65-1.73-1.22-2.55-1.77-.55-.37-2.47-1.53-1.93.21A2.92,2.92,0,0,0,219.55,101.84Z"/><path class="cls-3" d="M117.61,181.21a6.39,6.39,0,0,0-1.58.71,10.52,10.52,0,0,0-1.56.9c-.52.38-.25,1.32.47,1.11a11,11,0,0,0,1.69-.75,6.31,6.31,0,0,0,1.6-.91C118.74,181.81,118.2,181.09,117.61,181.21Z"/><path class="cls-3" d="M268.93,188.7c-1.38-.45-3.13-.11-4.58-.12-1.63,0-3.27-.08-4.9-.2-3.23-.23-6.47-1-9.7-1.08-.57,0-.58.74-.12.93,2.92,1.21,6.43,1.46,9.56,1.76,1.63.16,3.27.27,4.9.32s3.44.37,4.84-.19A.74.74,0,0,0,268.93,188.7Z"/><path class="cls-3" d="M278,188.56a.74.74,0,0,0,0,1.48A.74.74,0,0,0,278,188.56Z"/><path class="cls-3" d="M138.86,144c2.13-2.85-1.94-5.8-3.85-7.66a7.13,7.13,0,0,0,6.81-2.35,8.91,8.91,0,0,0,1.46-8.54c-1.95-5.61-8-8.48-13.67-8.24a30.46,30.46,0,0,0-17.87,8.08c-4.12,4.26-6.32,11.37-2.63,16.62,2.92,4.16,10,6.47,13.58,1.69,1.54-2.07,1.45-5.33-.87-6.82a4.15,4.15,0,0,0-3.2-.57c-.29.08-.56.28-.85.35-1.11.28-1-.58-.6-1.24a2.35,2.35,0,0,1,2.66-.94c3.35.78,4.8,5.88,5.63,8.73.65,2.22,1.19,5.44,4,5.82,1.76.24,3.34-.89,4.76-1.77S137.81,145.39,138.86,144Zm-1.88-.75a24.72,24.72,0,0,1-4.11,2.66c-1.37.86-3.28,2.19-4.55.48a9.28,9.28,0,0,1-1.15-3.25,33.57,33.57,0,0,0-1.56-4.49c-1-2.36-2.34-5-4.93-5.84a4,4,0,0,0-5.16,2.2,2.76,2.76,0,0,0,.47,2.81c.83.87,1.65.51,2.59.12a2.46,2.46,0,0,1,3.37,1.74,3.81,3.81,0,0,1-1.92,4c-2.54,1.56-5.8.74-7.94-1.1-4.77-4.13-3.29-11.32.44-15.59a24.83,24.83,0,0,1,16.35-8,13.38,13.38,0,0,1,9,2.46,8.75,8.75,0,0,1,3.64,8.13c-.49,3.13-3.8,6.11-7,4.52a3.84,3.84,0,0,1-2.19-3.82,3.41,3.41,0,0,1,1.52-2.28c.74-.48,2-.29,2.49-1.11.78-1.29-1.05-2.86-2-3.35a5.76,5.76,0,0,0-4.48-.22c-6.29,2.28-.67,9.79,1.86,12.71a44,44,0,0,0,3.21,3.34C135.82,140.24,138.42,141.79,137,143.24Zm-6.65-12.89c0,.16,0,.33,0,.49-1.09-1.48-2.46-3.62-1.16-5.27s3.83-1.4,5.42-.43h0a.3.3,0,0,1-.11.55A5.22,5.22,0,0,0,130.33,130.35Z"/><path class="cls-3" d="M73.66,156.93c6.36-.77,14.28-2.78,17.44-9a11.63,11.63,0,0,0,.94-8.67,10.75,10.75,0,0,0-6.61-6.48,41.94,41.94,0,0,0-10.74-2.48,33.53,33.53,0,0,0-4.47-.36h-.74a44.21,44.21,0,0,0-6.5.37c-6.1.82-12.85,4.22-13.37,11.12,0,0,0,.08,0,.13a10.23,10.23,0,0,0,3,10.69C58.19,157.05,66.62,157.78,73.66,156.93Zm-16.21-4.46c-2.58-1-5-2.62-6-5.28,3.18,3.65,9.81,4.61,14.33,5,8,.75,16.32-.65,22.22-6.53a.59.59,0,0,0-.83-.83c-4.58,4.57-11.29,6-17.57,6a50.88,50.88,0,0,1-10.07-1.08c-3-.62-6.16-1.88-7.68-4.69-4.08-7.55,8.87-13.29,14.42-13.38a45.13,45.13,0,0,1,13.22,2c2.75.8,5.65,1.71,7.92,3.5a6.41,6.41,0,0,1,2.19,7C88,150,82,152.39,76.69,153.49,70.44,154.79,63.48,154.73,57.45,152.47Z"/><path class="cls-3" d="M88.42,143.16l.13-.6a.71.71,0,0,0,0-.32,1,1,0,0,0-.12-.23.18.18,0,0,0-.28,0,1.07,1.07,0,0,0-.18.19.7.7,0,0,0-.06.32l0,.61A.27.27,0,0,0,88.42,143.16Z"/><path class="cls-3" d="M72.88,124.33a50.1,50.1,0,0,0,6.65,3.87,52,52,0,0,0,14.21,4.56c3.64.6,9.11,1.73,12-1.36a4.9,4.9,0,0,0,1.13-2.1,1.81,1.81,0,0,0,.3-1.42,5.3,5.3,0,0,0-.22-1,5,5,0,0,0-.24-.94,10.85,10.85,0,0,0-3.38-4.5c-.55-.57-1.12-1.12-1.71-1.63a33.27,33.27,0,0,0-10.76-6.23c-.66-.27-1.33-.53-2-.77A36.29,36.29,0,0,0,81.17,111a18.82,18.82,0,0,0-7.77.28.16.16,0,0,0-.12.1c-3.45,1.24-6.19,4.84-4.55,8.56A11.34,11.34,0,0,0,72.88,124.33Zm-2.46-8.66a3.73,3.73,0,0,0,.38,1.48,8.57,8.57,0,0,0,3.07,2.94,48.16,48.16,0,0,0,5.09,3c6.68,3.33,14.44,6.1,22,5.14.37,0,.55-.64.1-.72-5.86-1-11.73-2-17.29-4.2a76.61,76.61,0,0,1-8.13-3.88,12.22,12.22,0,0,1-3.45-2.36,3.41,3.41,0,0,1-.73-2.74,6.6,6.6,0,0,1,.89-.71c3.58-2.35,9-1,12.86-.08a36.85,36.85,0,0,1,12.2,5.11,42.11,42.11,0,0,1,3.53,2.87c.44.41.9.82,1.35,1.26.27.28.53.57.78.86.4.47.8,1,1.17,1.46a6.86,6.86,0,0,1,.61,1.21c1.89,5.06-4.37,5.16-7.57,4.84A51.06,51.06,0,0,1,74,122.82c-1.53-1-3.28-2.3-3.91-4.12A3.8,3.8,0,0,1,70.42,115.67Z"/><path class="cls-3" d="M102.62,126.7a.21.21,0,0,0,.06.1.18.18,0,0,0,.08.09.21.21,0,0,0,.1.06.27.27,0,0,0,.12,0h.13a.27.27,0,0,0,.17-.06l0,0a.46.46,0,0,0,.15-.16.27.27,0,0,0,0-.15.32.32,0,0,0,0-.17.37.37,0,0,0-.11-.19l0,0-.1-.08-.11,0h-.25l-.11,0-.1.08-.07.09a.35.35,0,0,0-.06.17.28.28,0,0,0,0,.13A.19.19,0,0,0,102.62,126.7Z"/><path class="cls-3" d="M179.62,116.08c-.57-2.3-2.37-4.84-4.87-5.23a5.08,5.08,0,0,0-3.68.93c-1.08.81-2,2.09-1.32,3.38.42.8,1.75,2,.89,2.94s-2.24.51-3.28.39a7.85,7.85,0,0,0-2.9,0c-2.4.65-2.7,3.34-1.45,5.18,2.43,3.62,7.68,4.71,11.52,2.94A9.24,9.24,0,0,0,179.62,116.08Zm-12.8,8.72a6.43,6.43,0,0,1-2.56-2.29c-.77-1.34-.09-2.38,1.38-2.51,2.26-.2,6.74,1.29,6.94-2.48.07-1.44-1.69-2.3-.75-3.63,1.43-2,3.77-1.35,5,.44a7.38,7.38,0,0,1,.82,6.47A7.68,7.68,0,0,1,166.82,124.8Z"/><path class="cls-3" d="M162.33,111.78a7.69,7.69,0,0,1-.65-.76,1,1,0,0,1-.14-.94c.47-1,2.56.67,3.16.88a4.35,4.35,0,0,0,2.76.11,4,4,0,0,0,2.55-4,5.72,5.72,0,0,0-2.59-4.23,9.12,9.12,0,0,0-.79-.47,11.15,11.15,0,0,0-4.06-1.06c-3.14-.25-6.57.55-8.58,3a8.73,8.73,0,0,0-1,8.72,8.37,8.37,0,0,0,2.35,3.35,5.66,5.66,0,0,0,3.82,1.34,4.3,4.3,0,0,0,3.43-2A3.46,3.46,0,0,0,162.33,111.78Zm-4.45,4a3.66,3.66,0,0,1-.89-.43,13,13,0,0,1-1.48-2.26,8,8,0,0,1-.51-1.34,11.17,11.17,0,0,0-.24-1.26,7.61,7.61,0,0,1,.19-2.73c1.05-4.08,5.47-5.22,9.19-4.45,1.86.39,3.88,1.6,4.07,3.67a2.62,2.62,0,0,1-1.35,2.54c-1.1.6-2-.14-3-.63-1.16-.61-2.67-.89-3.61.25s-.16,2.13.6,3.09C162.52,114.3,160,116.47,157.88,115.79Z"/><path class="cls-3" d="M196.18,151.41c1.76,7.13,10.26,10.43,16.62,7.39,2.91-1.38,6.13-4.62,5.78-8.12-.41-4.1-5.5-3.92-8.56-4.07-4.75-.23-9.69.45-13.57,3.39a1.06,1.06,0,0,0-.27,1.37Zm13.57-3.17c1.05,0,2.09.11,3.13.21a6.74,6.74,0,0,1,3.2.69,2.41,2.41,0,0,1,.6.59,56.84,56.84,0,0,1-17.36.53A20.42,20.42,0,0,1,209.75,148.24Zm7.25,2.28c.25,1.45-.9,3.24-1.8,4.21a10.45,10.45,0,0,1-9.84,3.25,10.26,10.26,0,0,1-7-6.11A45.09,45.09,0,0,0,217,150.52Z"/><path class="cls-3" d="M205.54,156.79c1.1.16,2.78.39,3.65-.43a.3.3,0,0,0-.13-.51c-1-.31-2.06.13-3.09.07a10.58,10.58,0,0,1-4-1.08.22.22,0,0,0-.22.38A8.81,8.81,0,0,0,205.54,156.79Z"/><path class="cls-3" d="M211.71,156.22a.51.51,0,0,0,0-1A.51.51,0,0,0,211.71,156.22Z"/><path class="cls-3" d="M220.67,121.35a21.15,21.15,0,0,0,6.52-9.6,10.86,10.86,0,0,0,.3-7.49,9.94,9.94,0,0,0-2.24-3.32,16.38,16.38,0,0,0-6.15-3.78,14.64,14.64,0,0,0-10.89.76,15,15,0,0,0-7.24,19.8C204.64,125.42,214.36,126.31,220.67,121.35ZM220,100.28l1.35.9a.56.56,0,0,1-.37,1,3.77,3.77,0,0,1-1.41-.36,2.92,2.92,0,0,1-1.5-1.35C217.51,98.75,219.43,99.91,220,100.28Zm-11.14-.48a12.15,12.15,0,0,1,7.54-1.26,3.13,3.13,0,0,0-.29,1c-.49,3.87,5.13,5.48,7.86,3.83a6,6,0,0,1,1.42,2.52c.75,2.94-1,6.58-2.52,9.05a15,15,0,0,1-6,5.85,10.35,10.35,0,0,1-8.55.46,10.54,10.54,0,0,1-5.31-6.36A12.61,12.61,0,0,1,208.84,99.8Z"/><path class="cls-3" d="M211.2,120.69c1.61.19,4.75-.12,5.54-1.79a.38.38,0,0,0-.32-.56,6.61,6.61,0,0,0-2,.67,8.53,8.53,0,0,1-2.75.41,8.77,8.77,0,0,1-5.18-1.83c-.2-.17-.47.09-.29.28A7.55,7.55,0,0,0,211.2,120.69Z"/><path class="cls-3" d="M219.18,117.13a.66.66,0,0,0,0-1.32A.66.66,0,0,0,219.18,117.13Z"/><path class="cls-3" d="M273.07,146.25c-3.45-2.15-7.9-3-11.89-3.48-8.44-1-17.31.93-24.11,6.16-3.28,2.54-6.06,6.87-3.63,10.95,1.7,2.85,4.89,4.42,7.95,5.35A32.46,32.46,0,0,0,252,166.58a51,51,0,0,0,13.91-2.87c3.9-1.29,8.14-3.44,10-7.33A7.56,7.56,0,0,0,273.07,146.25Zm1.66,7.4c-.24,3.86-3.82,5.68-6.91,7.2-5.71,2.8-12,3.51-18.31,3a28.64,28.64,0,0,1-10.57-2.65,7,7,0,0,1-3.61-3.29,4.15,4.15,0,0,1-.22-.74,7.13,7.13,0,0,0,2.71,2.45,27.53,27.53,0,0,0,9.94,2.77,39.36,39.36,0,0,0,10.62-.34,44.49,44.49,0,0,0,5.35-1.21c1.46-.43,3.21-.77,4.06-2.12a.29.29,0,0,0-.17-.43c-1.3-.39-2.44.18-3.7.53s-2.76.76-4.17,1.06a42.27,42.27,0,0,1-9.18,1,31.23,31.23,0,0,1-8.79-1.35c-2.29-.72-6.1-2-6.38-4.81a7.37,7.37,0,0,1,1.38-2.24,22.44,22.44,0,0,1,9.43-5.79,34.37,34.37,0,0,1,21.73,0C271.26,147.73,275,149.58,274.73,153.65Z"/><path class="cls-3" d="M272.33,154.39c-.36.06-.47.32-.68.59s-.46.53-.7.79c-.49.51-1.11.84-1.61,1.32-.35.33,0,.78.42.73a4.14,4.14,0,0,0,2-1.21c.44-.41,1.3-1.29,1-1.93A.43.43,0,0,0,272.33,154.39Z"/><path class="cls-3" d="M273.88,152.22a.47.47,0,0,0,0-.94A.47.47,0,0,0,273.88,152.22Z"/><path class="cls-3" d="M258.55,147.32a2.36,2.36,0,0,0-2-.34,1.7,1.7,0,0,0-1,.61,12,12,0,0,0-.28,2.82,2.28,2.28,0,0,0,3.42.61A2.43,2.43,0,0,0,258.55,147.32Zm-.85,2.58a.95.95,0,0,1-1.45-1.08h.05a2.33,2.33,0,0,0,.57-.17,1,1,0,0,1,.73,0A.82.82,0,0,1,257.7,149.9Z"/><path class="cls-3" d="M251.33,150.62a.7.7,0,0,0-.28-.26,1,1,0,0,0-.49-.13h-.09a.85.85,0,0,0-.38.09.79.79,0,0,0-.31.2l-.15.2a.67.67,0,0,0-.12.36.57.57,0,0,0,0,.26.74.74,0,0,0,.12.37l.15.19a1,1,0,0,0,.43.26l.08,0a1,1,0,0,0,.53,0l.23-.1a1,1,0,0,0,.36-.35.85.85,0,0,0,.12-.37.78.78,0,0,0,0-.4A.72.72,0,0,0,251.33,150.62Z"/><path class="cls-3" d="M253,155a.8.8,0,0,0,0,1.6A.8.8,0,0,0,253,155Z"/><path class="cls-3" d="M257.75,154.29a.5.5,0,0,0,0,1A.5.5,0,0,0,257.75,154.29Z"/><path class="cls-3" d="M244.3,153.91a.61.61,0,0,0,0,1.22A.61.61,0,0,0,244.3,153.91Z"/><path class="cls-3" d="M235.47,132.77a.59.59,0,0,0,.09.56.88.88,0,0,0,.85,1.26c15.73-.42,33.83-5.76,41-21.18a26.3,26.3,0,0,0,2.5-12.25.82.82,0,0,0-.8-.8c-15.49.47-29.88,8-38.4,21.08A42.78,42.78,0,0,0,235.47,132.77Zm16.73-21.61a44.4,44.4,0,0,1,26.09-9.2c-.41,6.78-3.82,13.23-8.49,18.08-5.38,5.58-12.33,8.94-19.79,10.78a64.4,64.4,0,0,1-8.23,1.43A98.1,98.1,0,0,0,270.88,111a.55.55,0,0,0-.78-.77,101.42,101.42,0,0,1-33.05,22.09A46.46,46.46,0,0,1,252.2,111.16Z"/><path class="cls-3" d="M115.7,117.89a10.23,10.23,0,0,0,9.68-4.39c2.9,1.78,6.46,1.76,9.73,1a5,5,0,0,0,3.46,4.57,5,5,0,0,0,5.15-1.5c1.75,6.09,6.37,11.38,11.28,15.15,5.6,4.29,13.11,6.67,19.95,4.08a15.15,15.15,0,0,0,9.9-16.49,19.72,19.72,0,0,0-4.41-10A30.84,30.84,0,0,0,177,106.9a18.8,18.8,0,0,0,6.5-2.07c2.58-1.37,5.44-3.54,5.93-6.61a4.58,4.58,0,0,0-4.12-5.53,6.54,6.54,0,0,0-4.11,1.07A14,14,0,0,0,183,85.51c-.44-3.22-2.69-6.51-6-7.14-3.54-.67-6.62,2-7.91,5.08s-.71,6.59.26,9.85c-2-2-4.5-3.34-7.42-2.06a3.94,3.94,0,0,0-2.44,4.06,5.1,5.1,0,0,0,1,2.52,15.08,15.08,0,0,0-13.33,4.63,6.47,6.47,0,0,0-2.62-5c-3.13-2.17-6.64.31-7.15,3.56a13.19,13.19,0,0,0-9.33-2.22,9.31,9.31,0,0,0-4.07,1.91,9.25,9.25,0,0,0-5.06-2.64c-5.45-.85-11,2.9-11.76,8.44A9.88,9.88,0,0,0,115.7,117.89Zm47.62-25.58c3.3-.81,5.63,2.48,7.25,4.82a.75.75,0,0,0,1.29-.75c-1.65-3.57-3.3-7.82-2-11.77,1-3,3.92-5.89,7.28-4.91,2.92.85,4.4,4.28,4.4,7.09,0,3.78-2.17,7.21-4.1,10.3a.76.76,0,0,0,1.2.92c1.55-1.68,3.39-3.77,5.88-3.77,3,0,3.93,3.2,2.54,5.51-2.38,4-7.9,5.38-12.38,5.35l-.39-.29a15.94,15.94,0,0,0,.6-3.41c.19-1.62.3-3.26.35-4.89s.06-3.1,0-4.64a45.27,45.27,0,0,0-.77-4.66c0-.09-.18-.07-.17,0,.08,1.44,0,2.91,0,4.37s0,3.09,0,4.64-.16,2.92-.32,4.38c-.13,1.15-.42,2.37-.47,3.56-.57-.4-1.15-.78-1.73-1.15a39.88,39.88,0,0,0-9-4.65,5.67,5.67,0,0,1-1.63-3A2.76,2.76,0,0,1,163.32,92.31Zm-14.5,11c-1.45,4.69,1.18,10.9,3.43,14.89,3.63,6.41,9.66,11.58,17,13.14a17.69,17.69,0,0,0,5.28.37.57.57,0,0,0,0-1.14A25.77,25.77,0,0,1,157.21,122a31.91,31.91,0,0,1-5.3-8.68c-1.31-3.17-3.08-7.45-1.17-10.78,1.57-2.73,5.46-2.69,8.17-2.43A27.82,27.82,0,0,1,170.16,104a29,29,0,0,1,4,2.89l.26.23.48.44.71.68,0,0a24.24,24.24,0,0,1,5.51,8.33c2.24,5.73.9,13.06-4.67,16.32-5.17,3-11.79,1.89-16.72-1-5.28-3.09-10.24-8.12-12.54-13.86C145.36,113.41,145.28,107.2,148.82,103.34Zm-26,1.7a7.21,7.21,0,0,1,6.23-4.77c3.16-.3,6.19,1.1,8.67,3a.8.8,0,0,0,1.2-.69c-.38-3.24,3.2-5.8,5.53-2.82a5.76,5.76,0,0,1,.89,4.72l-.09.4a14.4,14.4,0,0,0-1.62,3.49c-.16.54-.29,1.09-.4,1.64a21.46,21.46,0,0,0-13.72-4.22c-.26,0-.35.44-.07.48a26.76,26.76,0,0,1,7.53,2.17,39.16,39.16,0,0,1,6,3.82,16.09,16.09,0,0,0,.1,2.5c0,.1,0,.19,0,.29a.94.94,0,0,0-.18.25,3.44,3.44,0,0,1-3.67,2.07,3.21,3.21,0,0,1-2.37-3.69.91.91,0,0,0-1.11-1.11c-3.08.81-6.67,1.13-9.56-.49C123.84,110.67,122,107.87,122.85,105Zm-6-4.67a.14.14,0,0,0,0-.06c.44-1,2.61-.44,2.39.53s-.92,1.86-2,1.63C116.07,102.21,116.51,101.13,116.84,100.37Zm-3.75.95a6.55,6.55,0,0,1,2-.86,2.32,2.32,0,0,0,1.51,2.86,2.79,2.79,0,0,0,2.79-.42,2.63,2.63,0,0,0,1-1.5c.27.15.55.3.81.47a8.48,8.48,0,0,1,1,.76,7.15,7.15,0,0,0-1,2.35,7.81,7.81,0,0,0,2.58,7.32,7.67,7.67,0,0,1-6.19,3.79,8,8,0,0,1-8.41-7.77A8.24,8.24,0,0,1,113.09,101.32Z"/><path class="cls-3" d="M175.72,139.71a8.58,8.58,0,0,0-5.54,5,5.93,5.93,0,0,0,2.07,6.87c4.1,3.18,10.94,3.41,14.63-.56a7,7,0,0,0,1.72-7.25l0-.1C186.94,138.33,180.14,138.16,175.72,139.71Zm10.88,7.35a6.57,6.57,0,0,1-3.52,3.45,9.07,9.07,0,0,1-6.81.23c-2.22-.79-4.42-2.48-3.52-5.08.79-2.28,3.14-3.29,5.33-3.76,2-.43,4.46-.62,6.33.37A4.4,4.4,0,0,1,186.6,147.06Z"/><path class="cls-3" d="M116.74,84.63A13.64,13.64,0,0,0,124.28,90a.77.77,0,0,0,.74-1.27c-2-1.88-1.25-5.23-.51-7.53s1.77-4.47,2-6.86v0a18.09,18.09,0,0,0-1-7.43c-.43-1.35-.85-2.71-1.35-4a14.91,14.91,0,0,0-.87-2.37c-1-1.73-2.33.53-2.83,1.43a50.31,50.31,0,0,1-3.85,5.58,13.05,13.05,0,0,0-2.51,8.84A17.71,17.71,0,0,0,116.74,84.63Zm2.39-17.76a18.27,18.27,0,0,0,3.14-5.15c.59,2.11,1.5,4.18,2.13,6.26a14.62,14.62,0,0,1,.29,8.56c-.7,2.39-1.74,4.67-2.09,7.16a9,9,0,0,0,0,2.13,19.67,19.67,0,0,1-1.79-5.63,29.66,29.66,0,0,1-.26-4.8,31.6,31.6,0,0,1,1-5.79c0-.08-.09-.1-.12,0a61.47,61.47,0,0,0-2,5.92,12.22,12.22,0,0,0-.41,5.07,13.47,13.47,0,0,0,2.14,5.88l-.22-.19a13.63,13.63,0,0,1-2.48-3.18,18.39,18.39,0,0,1-2.32-8.42C116,71.55,117.28,69.25,119.13,66.87Z"/><path class="cls-3" d="M227,85.17a8.8,8.8,0,0,0,4.94,5.54,12,12,0,0,0,7,.89c2.78-.52,5.14-2.29,7.33-4.6.51-.54.08-1.41-.53-1.13-2.28,1.08-4.23-.88-5.48-2.39s-2.25-3.25-3.79-4.38l0,0a11.49,11.49,0,0,0-5.62-2c-1.14-.14-2.29-.28-3.45-.35a12.74,12.74,0,0,0-2.06-.13c-1.67.21-.74,2.25-.36,3A40.15,40.15,0,0,1,227,85.17Zm4-6.58a9.21,9.21,0,0,1,6.08,3c1.33,1.52,2.42,3.29,4,4.54a6.08,6.08,0,0,0,1.46.85,13.71,13.71,0,0,1-4.77-.55,19,19,0,0,1-3.46-1.59,20.47,20.47,0,0,1-3.54-3.06s-.12,0-.08.1a42.46,42.46,0,0,0,3.16,4,7.67,7.67,0,0,0,3.32,2.28,9.41,9.41,0,0,0,5.11.33l-.24.13a11.56,11.56,0,0,1-3.39,1,12.37,12.37,0,0,1-6.95-1.14c-2.22-1.08-3.19-3.09-4-5.61a14,14,0,0,0-2.07-4.7C227.39,78.38,229.26,78.36,231,78.59Z"/><path class="cls-3" d="M63.76,108.83a9.23,9.23,0,0,0,.93-7.63A30.21,30.21,0,0,1,63.12,96c-.14-.81-.58-2.88-2.15-1.6a18.17,18.17,0,0,0-1.71,1.81c-1,1-1.88,2.08-2.8,3.13a17.72,17.72,0,0,0-3.69,5.95v0c-.65,2-.47,4-.64,5.94s-.66,4.87-3.3,6.11c-.71.34-.55,1.25.23,1.16a18.9,18.9,0,0,0,9.16-3.28A19.66,19.66,0,0,0,63.76,108.83ZM53.67,116l-.29.12a15.38,15.38,0,0,0,4.24-4.51,10,10,0,0,0,1.5-4.22,43,43,0,0,0,.33-5.17c0-.06-.12-.06-.13,0a23.42,23.42,0,0,1-1.22,4.9,27.52,27.52,0,0,1-2,3.91,22.16,22.16,0,0,1-3.81,4.36,7.69,7.69,0,0,0,.74-1.76c.61-2.1.48-4.12.71-6.2a13.14,13.14,0,0,1,3.48-7c1.37-1.61,3-3.17,4.36-4.82a11.17,11.17,0,0,0,1.06,4.7c.86,2.24,1.23,4.32,0,6.86a20.11,20.11,0,0,1-5.36,6.57A18.44,18.44,0,0,1,53.67,116Z"/><path class="cls-1" d="M182.2,234.7c1.24.06,2.73-.59,3.92-.12a10.43,10.43,0,0,0-3.86,1.29Q182.21,235.28,182.2,234.7Z"/><path class="cls-1" d="M184.6,242.47h0l.05,0Z"/><path class="cls-1" d="M158.35,241.45a2.2,2.2,0,0,1-.25-.54,5.32,5.32,0,0,0,0,1.49c.27,2.36,2,3.55,4,4.34.17.07.25.32.06.42a3.29,3.29,0,0,1-2.41.11c0,.22.09.44.12.63q.12.93.21,1.86c.11,1.16.21,2.32.34,3.48.25,2.18.22,4.49.93,6.61a6.26,6.26,0,0,0,1.83,2.83,6.75,6.75,0,0,0,3.56,1.26,27.51,27.51,0,0,0,10.23-.35,27.84,27.84,0,0,0,9.18-3.81,9.91,9.91,0,0,0,2.07-1.57c.67-.76.51-1.73.47-2.68-.1-2.07-.18-4.15-.26-6.22-.1-2.32-.19-4.63-.3-6.94-.05-1.11-.11-2.23-.13-3.34a7.82,7.82,0,0,0-.6-3.21,10.13,10.13,0,0,0-1.55.21,9.44,9.44,0,0,0-2.79,1.29c-1.59,1-2.94,2.42-4.49,3.53-3.06,2.16-7,2.68-10.61,2.94C164.88,244,160.27,244.6,158.35,241.45ZM185,254.32a1.29,1.29,0,0,1,.58-1,1,1,0,0,1,.61-.12.39.39,0,0,1,.36,0,2.92,2.92,0,0,1,.32.28h0a1.47,1.47,0,0,1,.34.52,2,2,0,0,1,.11,1,1.13,1.13,0,0,1-1.62.88A1.65,1.65,0,0,1,185,254.32Zm-1.7-11.87a1.67,1.67,0,0,1,0-.29,1.45,1.45,0,0,1,.11-.26c-.07.16-.07.16,0,0a1.43,1.43,0,0,1,1.71-.8,1.46,1.46,0,0,1-.35,2.84,1.45,1.45,0,0,1-1.18-.58,1.18,1.18,0,0,1-.32-.92Z"/><path class="cls-1" d="M162.49,241.58a4,4,0,0,1-2.55-.94c-1.13-1.22,1.15-1.53,2.14-1.58C162.24,239.89,162.37,240.73,162.49,241.58Z"/><path class="cls-1" d="M111.08,172.83c-.6,1.57,1.5,2.75,2.61,3.33,1.91,1,4,1.69,6,2.57,4.21,1.9,8.44,3.82,12.59,5.86a66.53,66.53,0,0,1,9.86,5.68c3.32,2.43,9.65,7.81,11,11.74a.45.45,0,0,1-.75.44A92,92,0,0,0,140,191.27a65.25,65.25,0,0,0-11.44-6.37c-4.23-2-8.55-3.63-12.86-5.35-1.52-.48-3.42-.93-4.59.25-1.67,1.68.73,3.5,2.16,4.09,3.28,1.36,6.62,2.48,9.84,4a94.32,94.32,0,0,1,18.2,11.22,39.68,39.68,0,0,1,8.44,8.33.3.3,0,0,1-.42.41c-3.4-2.28-6.42-5.09-9.7-7.56q-3.5-2.61-7.19-5c-1.14-.6-2.32-1.2-3.38-1.65-3.4-1.45-6.92-1.67-10.6-2.06-1-.11-5.69-.7-4.46,1.44.77,1.32,3.25,1.59,4.57,2q5.07,1.63,9.95,3.76c12.7,5.54,24.4,14.28,31,26.71a38.36,38.36,0,0,1,4.61,16.09h.33a36.93,36.93,0,0,0,9.2-1c2.84-.75,5-2.54,7.46-4.06a43.32,43.32,0,0,1,8.33-30.35,39.89,39.89,0,0,1,5.91-6.34c1-.88,2.13-1.72,3.25-2.51s2.6-1.49,3.72-2.42c1.4-1.16.47-2.63-1-3a12.58,12.58,0,0,0-5.32.2c-3.34.66-6.17,2.29-9.2,3.75a13.94,13.94,0,0,1-8.6,1.61,19.54,19.54,0,0,1-8.07-4c-5.17-3.85-10.06-8-15.4-11.67a82.07,82.07,0,0,0-16.51-9.06,54,54,0,0,0-8.9-2.61c-1-.19-7.57-1.35-5.67,1.42.91,1.33,2.79,2,4.16,2.71,1.72.88,3.46,1.71,5.2,2.56a110,110,0,0,1,10.2,5.49,52.69,52.69,0,0,1,8,6.05,24.4,24.4,0,0,1,5.95,8,.63.63,0,0,1-1.09.64,48.31,48.31,0,0,0-14.26-13.24c-3.18-1.92-6.51-3.58-9.86-5.18-1.48-.71-3-1.41-4.45-2.09a24,24,0,0,1-4.6-2.35,5.43,5.43,0,0,1-1.37-1.54,17.63,17.63,0,0,0-6.73-1.41C113.58,171.22,111.58,171.53,111.08,172.83Zm58.55,22.35c.8.78,3.71,4.1,12.58,3.91a.33.33,0,0,1,.24.56c-1.54,1.91-10.86,1.07-12.91-4.4A.06.06,0,0,1,169.63,195.18Z"/><path class="cls-3" d="M185.73,266.32a6.81,6.81,0,0,1,.48,3.64.16.16,0,0,1-.29,0,24.27,24.27,0,0,1-1.15-3.4C184.55,266,185.52,265.71,185.73,266.32Z"/><path class="cls-3" d="M184.38,267.09a3.49,3.49,0,0,1,.35,1.22,1.1,1.1,0,0,1,0,.57c-.08.21-.19.37-.26.6s-.37.21-.41,0-.3-.55-.4-.87a5.54,5.54,0,0,0-.39-.86C182.89,267,184,266.35,184.38,267.09Z"/><path class="cls-3" d="M111.81,177.79a4.56,4.56,0,0,0-.78.22,3.37,3.37,0,0,0-2.13,4.14,5.83,5.83,0,0,0,3.49,3.48c1.78.79,3.65,1.41,5.45,2.15s3.32,1.42,4.94,2.21a45.21,45.21,0,0,0-6.84-.32c-1.46,0-3.18.14-3.81,1.7a3.25,3.25,0,0,0,1.12,3.64c1.27,1.05,3.07,1.36,4.61,1.83q2.64.81,5.22,1.74a76.86,76.86,0,0,1,20.2,10.73,50.78,50.78,0,0,1,14.34,16.87,46.9,46.9,0,0,1,4.08,11.12,5.59,5.59,0,0,0-4,1,4.94,4.94,0,0,0-1.42,4.24,5.57,5.57,0,0,0,2,4l.25.17c0,.24,0,.5-.05.75-.09,1.39-.06,2.78,0,4.18.07,2.38.27,4.76.35,7.12a7.49,7.49,0,0,0,2.29,5.16,2.11,2.11,0,0,0,.23.19,11.44,11.44,0,0,0-.54,2.53c-.2,1.24-.36,2.49-.47,3.75-.05.62-.09,1.25-.12,1.88.61.12,1.21.32,1.76.46l.54.12c0-.75,0-1.49,0-2.23,0-1.32.14-2.63.28-4,.06-.58.2-1.21.24-1.81l.39.07a10.19,10.19,0,0,0,2.07.73,27.92,27.92,0,0,0,21.75-4.23c.22.95.64,1.89.89,2.8.36,1.3.65,2.6.91,3.92.22,1.16.39,2.32.51,3.49l1-.16,1.38-.26c-.18-1.11-.4-2.2-.62-3.23a35.49,35.49,0,0,0-1.29-4.5,14.67,14.67,0,0,0-1.32-3.08l.49-.38c1.87-1.47,1.71-3.23,1.63-5.44-.1-2.63-.27-5.27-.48-7.89s-.51-5.05-.75-7.56a9.21,9.21,0,0,0-.91-3.63.2.2,0,0,0,0-.18l-.1-.09a5.75,5.75,0,0,0-1.12-1.28c-1.29-1.08-3.59-.94-5.22-.57A40.82,40.82,0,0,1,185,218.09a44.32,44.32,0,0,1,12.61-17,38.82,38.82,0,0,1,3.73-2.78,12.26,12.26,0,0,0,3.21-2.45c1.88-2.46-.11-5.28-2.75-5.88-3.22-.75-7.21.17-10.25,1.28s-5.86,3.06-9.06,3.81c-6.75,1.58-12.58-4.77-17.37-8.53a135.89,135.89,0,0,0-16.51-11.43A63.22,63.22,0,0,0,130.69,168c-2.52-.54-6-1.51-8.33.06a3,3,0,0,0-1.43,2.23c-3.5-1.44-9.14-2.48-11.59.8C107.29,173.82,109.4,176.3,111.81,177.79Zm74.31,56.79a10.43,10.43,0,0,0-3.86,1.29q0-.59-.06-1.17C183.44,234.76,184.93,234.11,186.12,234.58ZM168,243.79c3.64-.26,7.55-.78,10.61-2.94,1.55-1.11,2.9-2.49,4.49-3.53a9.44,9.44,0,0,1,2.79-1.29,10.13,10.13,0,0,1,1.55-.21A7.82,7.82,0,0,1,188,239c0,1.11.08,2.23.13,3.34.11,2.31.2,4.62.3,6.94.08,2.07.16,4.15.26,6.22,0,1,.2,1.92-.47,2.68a9.91,9.91,0,0,1-2.07,1.57,27.84,27.84,0,0,1-9.18,3.81,27.51,27.51,0,0,1-10.23.35,6.75,6.75,0,0,1-3.56-1.26,6.26,6.26,0,0,1-1.83-2.83c-.71-2.12-.68-4.43-.93-6.61-.13-1.16-.23-2.32-.34-3.48q-.09-.93-.21-1.86c0-.19-.08-.41-.12-.63a3.29,3.29,0,0,0,2.41-.11c.19-.1.11-.35-.06-.42-2-.79-3.76-2-4-4.34a5.32,5.32,0,0,1,0-1.49,2.2,2.2,0,0,0,.25.54C160.27,244.6,164.88,244,168,243.79Zm-5.9-4.73c.16.83.29,1.67.41,2.52a4,4,0,0,1-2.55-.94C158.81,239.42,161.09,239.11,162.08,239.06Zm-51-66.23c.5-1.3,2.5-1.61,3.7-1.66a17.63,17.63,0,0,1,6.73,1.41,5.43,5.43,0,0,0,1.37,1.54,24,24,0,0,0,4.6,2.35c1.5.68,3,1.38,4.45,2.09,3.35,1.6,6.68,3.26,9.86,5.18A48.31,48.31,0,0,1,156.05,197a.63.63,0,0,0,1.09-.64,24.4,24.4,0,0,0-5.95-8,52.69,52.69,0,0,0-8-6.05,110,110,0,0,0-10.2-5.49c-1.74-.85-3.48-1.68-5.2-2.56-1.37-.7-3.25-1.38-4.16-2.71-1.9-2.77,4.69-1.61,5.67-1.42a54,54,0,0,1,8.9,2.61,82.07,82.07,0,0,1,16.51,9.06c5.34,3.64,10.23,7.82,15.4,11.67a19.54,19.54,0,0,0,8.07,4,13.94,13.94,0,0,0,8.6-1.61c3-1.46,5.86-3.09,9.2-3.75a12.58,12.58,0,0,1,5.32-.2c1.51.41,2.44,1.88,1,3-1.12.93-2.53,1.58-3.72,2.42s-2.21,1.63-3.25,2.51a39.89,39.89,0,0,0-5.91,6.34,43.32,43.32,0,0,0-8.33,30.35c-2.44,1.52-4.62,3.31-7.46,4.06a36.93,36.93,0,0,1-9.2,1h-.33a38.36,38.36,0,0,0-4.61-16.09c-6.58-12.43-18.28-21.17-31-26.71q-4.87-2.13-9.95-3.76c-1.32-.42-3.8-.69-4.57-2-1.23-2.14,3.48-1.55,4.46-1.44,3.68.39,7.2.61,10.6,2.06,1.06.45,2.24,1,3.38,1.65q3.69,2.34,7.19,5c3.28,2.47,6.3,5.28,9.7,7.56a.3.3,0,0,0,.42-.41,39.68,39.68,0,0,0-8.44-8.33,94.32,94.32,0,0,0-18.2-11.22c-3.22-1.52-6.56-2.64-9.84-4-1.43-.59-3.83-2.41-2.16-4.09,1.17-1.18,3.07-.73,4.59-.25,4.31,1.72,8.63,3.4,12.86,5.35A65.25,65.25,0,0,1,140,191.27a92,92,0,0,1,12.39,11.18.45.45,0,0,0,.75-.44c-1.39-3.93-7.72-9.31-11-11.74a66.53,66.53,0,0,0-9.86-5.68c-4.15-2-8.38-4-12.59-5.86-2-.88-4-1.58-6-2.57C112.58,175.58,110.48,174.4,111.08,172.83Z"/><path class="cls-3" d="M185.58,253.27a1,1,0,0,1,.61-.12.39.39,0,0,1,.36,0,2.92,2.92,0,0,1,.32.28h0a1.47,1.47,0,0,1,.34.52,2,2,0,0,1,.11,1,1.13,1.13,0,0,1-1.62.88,1.65,1.65,0,0,1-.71-1.58A1.29,1.29,0,0,1,185.58,253.27Z"/><path class="cls-3" d="M183.34,242.16a1.67,1.67,0,0,0,0,.29,1.18,1.18,0,0,0,.32.92,1.45,1.45,0,0,0,1.18.58,1.45,1.45,0,1,0-1.36-2c-.06.15-.06.15,0,0A1.45,1.45,0,0,0,183.34,242.16Zm1.26.31.05,0-.05,0Z"/><path class="cls-3" d="M169.63,195.18c.8.78,3.71,4.1,12.58,3.91a.33.33,0,0,1,.24.56c-1.54,1.91-10.86,1.07-12.91-4.4A.06.06,0,0,1,169.63,195.18Z"/><path class="cls-2" d="M46.6,293.28,42.74,290a9.16,9.16,0,0,0-6.05-2.17H9.15v33.88L13,325H40.55a8.72,8.72,0,0,0,9-9V300.17A8.9,8.9,0,0,0,46.6,293.28Zm-1.13,19.38a8.49,8.49,0,0,1-8.78,8.72H9.41V288.06H36.69a8.52,8.52,0,0,1,8.78,8.77Z"/><path class="cls-2" d="M30.76,298.53l-8.06-.06V311h8.06a1.51,1.51,0,0,0,1.68-1.5v-9.39A1.56,1.56,0,0,0,30.76,298.53Zm1.42,10.94a1.25,1.25,0,0,1-1.42,1.22H26.82v-8.61l5.36.06Z"/><path class="cls-2" d="M36.69,288.89H10.18v31.66H36.69a7.69,7.69,0,0,0,8-7.89V296.83A7.71,7.71,0,0,0,36.69,288.89Zm-3.48,20.58a2.31,2.31,0,0,1-2.45,2.33H21.93V297.64l8.83.05a2.34,2.34,0,0,1,2.45,2.39Z"/><polygon class="cls-2" points="66.48 288.89 54.74 288.89 54.74 302.11 66.48 297.78 66.48 288.89"/><path class="cls-2" d="M53.71,287.78v15.89L57.57,307l13.81-5.08V291.11l-3.87-3.33Zm13.55,10.61L54,303.28V288.06H67.26Z"/><path class="cls-2" d="M84.69,288.89,73.18,320.55H84.74l1.75-5.28H98.75l1.76,5.28h11.56l-11.51-31.66ZM89,307.5l3.56-10.78,3.58,10.78Z"/><path class="cls-2" d="M101.25,287.78H84L71.66,321.66,75.52,325H89.33l1.75-5.27h8.06l.65,1.94,3.86,3.33h13.8l-12.33-33.88ZM100,321.38l-1.76-5.27H87l-1.76,5.27H72l12.14-33.32h16.89l12.13,33.32Z"/><polygon class="cls-2" points="90.15 306.67 95.07 306.67 92.6 299.22 90.15 306.67"/><polygon class="cls-2" points="120.05 288.89 120.05 320.55 130.77 320.55 130.77 302.5 141.79 320.55 154.57 320.55 154.57 288.89 143.88 288.89 143.88 307.22 132.83 288.89 120.05 288.89"/><path class="cls-2" d="M142.85,287.78v12.61l-5.59-9.28-3.87-3.33H119v33.88l3.87,3.33h12.77V312.55l5.56,9.11,3.87,3.33h14.37V291.11l-3.86-3.33Zm12.49,33.6h-14l-9.81-16.08v16.08H119.28V288.06h14l9.83,16.36V288.06h12.24Z"/><path class="cls-2" d="M203.73,292.92l-3.86-3.33a7.69,7.69,0,0,0-5.15-1.81H173.08a7.08,7.08,0,0,0-7.44,7.11v19.72a6.78,6.78,0,0,0,2.24,5.13l3.86,3.34A8,8,0,0,0,177,325h21.63a7.68,7.68,0,0,0,5.54-2.16,6.83,6.83,0,0,0,2-4.89V306.33L202.21,303h-4.68l8.55-3.22v-1.56A6.9,6.9,0,0,0,203.73,292.92ZM202,296.25l-13,4.92V300a1.49,1.49,0,0,0-1.62-1.5h-6.75a1.52,1.52,0,0,0-1.62,1.56v9.38a1.49,1.49,0,0,0,1.62,1.5h6.7a1.51,1.51,0,0,0,1.67-1.5v-.94h-6.8l2.63-5.22H202v11.33c0,3.91-3.07,6.77-7.24,6.77H173.08c-4.14,0-7.18-2.88-7.18-6.77V294.89c0-3.92,3-6.83,7.18-6.83h21.64c4.17,0,7.24,2.89,7.24,6.83ZM190.34,303H184.6l-1.55,3.05v-2.66a1.33,1.33,0,0,1,.39-.95,1.37,1.37,0,0,1,1-.33h4.89Zm-7.29,7.66v-.72l.83.72Z"/><path class="cls-2" d="M194.72,288.89H173.08c-3.71,0-6.41,2.53-6.41,6v19.72c0,3.44,2.7,5.94,6.41,5.94h21.64c3.76,0,6.46-2.5,6.46-5.94v-10.5h-16l-1.8,3.55h6.29v1.78a2.31,2.31,0,0,1-2.45,2.33h-6.7a2.27,2.27,0,0,1-2.39-2.33v-9.38a2.31,2.31,0,0,1,2.39-2.39h6.75a2.28,2.28,0,0,1,2.4,2.33l11.48-4.33v-.78C201.18,291.42,198.48,288.89,194.72,288.89Z"/><polygon class="cls-2" points="245.48 312.36 224.77 312.36 224.77 308.47 238.27 308.47 238.27 300.97 224.77 300.97 224.77 297.08 245.48 297.08 245.48 288.89 213.03 288.89 213.03 320.55 245.48 320.55 245.48 312.36"/><path class="cls-2" d="M212,287.78v33.88l3.86,3.33h34.52V314.58l-3.87-3.33h-3.35v-8.06l-1.93-1.66h9.15V291.11l-3.87-3.33Zm34.26,10.14H225.55v2.22H239v9.16H225.55v2.22h20.71v9.86h-34V288.06h34Z"/><polygon class="cls-2" points="268.3 288.89 256.56 288.89 256.56 320.55 288.49 320.55 288.49 311.66 268.3 311.66 268.3 288.89"/><path class="cls-2" d="M273.19,310.55V291.11l-3.86-3.33H255.52v33.88l3.87,3.33h34v-11.1l-3.87-3.34Zm16.08,10.83H255.78V288.06h13.29v22.77h20.2Z"/><polygon class="cls-2" points="312.42 306.67 317.34 306.67 314.87 299.22 312.42 306.67"/><path class="cls-2" d="M327.38,291.11l-3.86-3.33H306.26l-12.34,33.88,3.87,3.33h13.8l1.76-5.27h8.06l.64,1.94,3.86,3.33h13.81Zm-5.15,30.27-1.75-5.27H309.3l-1.75,5.27H294.31l12.13-33.32h16.9l12.13,33.32Z"/><path class="cls-2" d="M322.82,288.89H307l-11.52,31.66H307l1.75-5.28H321l1.75,5.28h11.57ZM311.31,307.5l3.55-10.78,3.58,10.78Z"/><text class="cls-4" transform="matrix(0.32, -0.95, 0.95, 0.32, 22.03, 125.33)">C</text><text class="cls-4" transform="translate(27 110.69) rotate(-65.47)">L</text><text class="cls-4" transform="translate(32.42 98.66) rotate(-59.69)">A</text><text class="cls-4" transform="translate(39.83 85.96) rotate(-53.7)">S</text><text class="cls-4" transform="translate(48.11 74.61) rotate(-47.95)">S</text><text class="cls-4" transform="translate(57.95 63.9) rotate(-43.54)">I</text><text class="cls-4" transform="translate(62.88 58.96) rotate(-38.92)">C</text><text class="cls-4" transform="matrix(0.82, -0.57, 0.57, 0.82, 75.12, 49.3)"> </text><text class="cls-4" transform="translate(79.35 46.16) rotate(-30.51)">A</text><text class="cls-4" transform="translate(91.97 38.67) rotate(-24.3)">R</text><text class="cls-4" transform="translate(105.68 32.46) rotate(-18.25)">T</text><text class="cls-4" transform="translate(119.56 28.02) rotate(-13.78)">I</text><text class="cls-4" transform="matrix(0.99, -0.16, 0.16, 0.99, 126.32, 26.2)">S</text><text class="cls-4" transform="matrix(1, -0.06, 0.06, 1, 140.54, 23.83)">A</text><text class="cls-4" transform="translate(155.44 23.15)">N</text><text class="cls-4" transform="translate(173.38 23.11) rotate(1.09)"> </text><text class="cls-4" transform="translate(178.64 23) rotate(5.03)">P</text><text class="cls-4" transform="translate(194.01 24.51) rotate(9.64)">I</text><text class="cls-4" transform="translate(200.92 25.51) rotate(14.13)">Z</text><text class="cls-4" transform="translate(214.63 28.92) rotate(19.99)">Z</text><text class="cls-4" transform="translate(228.19 33.81) rotate(25.99)">A</text><text class="cls-4" transform="matrix(0.86, 0.5, -0.5, 0.86, 241.46, 40.46)"> </text><text class="cls-4" transform="translate(246.1 42.91) rotate(34.42)">R</text><text class="cls-4" transform="matrix(0.76, 0.65, -0.65, 0.76, 258.81, 51.63)">E</text><text class="cls-4" transform="translate(269.67 60.83) rotate(46.57)">C</text><text class="cls-4" transform="translate(280.25 72.24) rotate(51.18)">I</text><text class="cls-4" transform="matrix(0.56, 0.83, -0.83, 0.56, 284.77, 77.56)">P</text><text class="cls-4" transform="translate(293.4 90.25) rotate(61.88)">E</text></g></g></svg>